<?xml version="1.0" standalone="no"?>
<!DOCTYPE svg PUBLIC "-//W3C//DTD SVG 20010904//EN"
 "http://www.w3.org/TR/2001/REC-SVG-20010904/DTD/svg10.dtd">
<svg version="1.0" xmlns="http://www.w3.org/2000/svg"
 width="2765.000000pt" height="995.000000pt" viewBox="0 0 2765.000000 995.000000"
 preserveAspectRatio="xMidYMid meet">

<g transform="translate(0.000000,995.000000) scale(0.100000,-0.100000)"
fill="#000000" stroke="none">
<path d="M15510 9934 c-552 -48 -922 -185 -1194 -444 -412 -392 -495 -1023
-194 -1482 234 -357 675 -586 1507 -783 554 -131 727 -217 822 -410 31 -64 34
-77 34 -160 -1 -80 -4 -98 -33 -158 -59 -127 -189 -230 -342 -273 -88 -25
-308 -30 -414 -10 -324 62 -526 285 -590 654 -7 46 -16 85 -17 86 -8 7 -1314
-79 -1313 -87 1 -4 4 -40 8 -80 9 -100 51 -280 93 -401 109 -314 321 -604 558
-763 300 -201 765 -303 1390 -304 347 -1 547 20 797 82 529 132 903 433 1098
887 77 179 110 345 110 558 0 570 -291 973 -885 1225 -190 80 -550 191 -857
263 -59 14 -189 44 -290 67 -214 48 -321 80 -401 120 -161 82 -213 221 -138
373 50 103 142 168 276 197 93 20 304 15 396 -10 230 -60 365 -206 431 -465
l23 -88 75 6 c41 3 325 20 630 36 305 17 565 33 577 36 25 5 26 -4 -9 174 -27
141 -79 294 -141 414 -209 407 -586 635 -1197 722 -110 15 -689 28 -810 18z"/>
<path d="M320 7630 l0 -2240 695 0 695 0 0 912 0 911 113 -6 c249 -15 372 -86
503 -292 27 -43 225 -402 439 -799 l390 -721 783 -3 c430 -1 782 -1 782 1 0
15 -697 1350 -730 1400 -69 100 -222 287 -297 358 -74 72 -153 117 -313 179
-92 37 -94 38 -60 45 79 16 290 90 364 127 340 168 581 484 651 850 23 124 30
299 15 429 -32 298 -137 527 -330 719 -195 196 -406 285 -795 335 -231 29
-489 35 -1692 35 l-1213 0 0 -2240z m2290 1307 c221 -52 324 -155 350 -348 20
-143 -17 -265 -110 -363 -63 -67 -127 -96 -290 -132 -122 -27 -134 -28 -487
-32 l-363 -3 0 451 0 452 418 -5 c328 -3 431 -8 482 -20z"/>
<path d="M1735 4624 c-525 -42 -911 -185 -1178 -434 -457 -427 -513 -1129
-127 -1596 248 -300 682 -503 1475 -689 382 -90 596 -176 695 -280 28 -30 65
-85 83 -122 29 -61 32 -77 32 -159 0 -84 -3 -95 -38 -166 -64 -131 -194 -228
-357 -269 -83 -21 -357 -18 -440 4 -304 82 -482 298 -544 662 l-12 70 -40 -2
c-21 -1 -317 -19 -658 -39 l-619 -38 6 -72 c22 -259 135 -575 282 -794 195
-288 399 -444 727 -554 286 -95 597 -136 1044 -136 435 0 722 42 1003 147 615
229 994 755 994 1378 1 450 -186 803 -555 1048 -284 190 -698 334 -1408 492
-367 81 -472 118 -553 194 -68 63 -87 105 -87 188 0 154 106 270 293 320 92
25 307 22 410 -6 230 -61 370 -211 430 -462 l22 -91 70 6 c39 3 322 19 630 36
308 17 570 34 583 36 27 5 27 9 -8 179 -119 585 -461 932 -1060 1078 -228 56
-358 69 -715 72 -181 1 -352 1 -380 -1z"/>
<path d="M6985 4623 c-22 -2 -104 -12 -183 -23 -802 -113 -1373 -554 -1629
-1259 -211 -581 -210 -1447 2 -2016 102 -274 276 -545 490 -761 302 -305 633
-455 1175 -531 158 -22 771 -26 915 -5 351 50 587 134 832 294 137 90 349 300
439 433 150 222 246 434 318 703 l24 91 -31 10 c-148 47 -1166 351 -1174 351
-6 0 -17 -24 -23 -53 -64 -274 -202 -534 -343 -648 -78 -63 -199 -117 -313
-140 -133 -28 -369 -22 -484 11 -122 35 -223 94 -315 185 -70 68 -90 96 -134
185 -83 168 -122 360 -142 687 -15 256 1 531 43 723 74 345 262 581 544 683
101 36 178 48 314 48 152 0 260 -25 384 -88 74 -38 109 -65 187 -143 84 -83
102 -108 142 -190 24 -52 52 -119 62 -147 9 -29 20 -53 23 -53 22 0 1199 265
1206 271 11 10 -47 171 -110 306 -169 364 -436 665 -738 832 -221 122 -497
201 -826 236 -122 13 -537 18 -655 8z"/>
<path d="M17590 4623 c-25 -2 -109 -12 -188 -23 -870 -123 -1494 -646 -1721
-1443 -69 -240 -99 -448 -108 -742 -14 -500 62 -912 237 -1270 115 -236 238
-404 430 -588 292 -280 656 -441 1170 -519 196 -29 687 -37 890 -14 465 53
827 191 1135 431 163 127 336 323 448 505 l38 62 44 -71 c81 -131 158 -225
294 -361 309 -308 663 -471 1201 -552 196 -29 687 -37 890 -14 401 46 740 160
1010 341 321 215 578 533 716 885 l33 85 1 -627 0 -628 1770 0 1770 0 0 555 0
555 -1075 0 -1075 0 -2 1683 -3 1682 -692 3 -693 2 0 -627 0 -628 -39 95 c-73
181 -159 327 -282 480 -349 434 -857 678 -1541 741 -193 18 -627 7 -802 -20
-455 -71 -837 -239 -1131 -499 -134 -118 -291 -306 -361 -431 -16 -28 -31 -51
-34 -51 -3 0 -17 22 -32 48 -45 79 -138 205 -217 293 -339 373 -809 591 -1413
654 -134 14 -528 19 -668 8z m575 -1077 c351 -105 549 -354 628 -791 18 -104
21 -158 22 -395 0 -439 -40 -673 -154 -895 -77 -152 -232 -293 -388 -354 -192
-75 -458 -87 -663 -30 -163 45 -336 164 -434 298 -107 145 -177 360 -206 633
-13 126 -13 467 0 599 45 437 191 709 466 865 143 80 257 104 474 100 144 -3
177 -7 255 -30z m4030 5 c105 -27 244 -97 322 -161 168 -136 273 -342 325
-632 20 -107 22 -159 23 -398 0 -553 -78 -857 -274 -1062 -145 -153 -306 -226
-547 -249 -283 -26 -537 51 -714 218 -161 151 -247 334 -297 628 -26 158 -26
670 0 827 83 489 306 760 697 843 99 22 362 14 465 -14z"/>
<path d="M10430 2320 l0 -2240 693 2 692 3 3 903 2 902 750 0 750 0 0 -905 0
-905 695 0 695 0 0 2240 0 2240 -695 0 -695 0 0 -785 0 -785 -750 0 -750 0 -2
783 -3 782 -692 3 -693 2 0 -2240z"/>
</g>
</svg>
